<svg xmlns="http://www.w3.org/2000/svg" viewBox="0 0 64 64">
  <rect width="64" height="64" rx="14" fill="#e6007e"/>
  <g fill="none" stroke="#fff7ef" stroke-width="4" stroke-linejoin="round" stroke-linecap="round">
    <path d="M32 12c10 0 17 7 17 16 0 5.5-2.5 9.5-6 12 -0.8 3.5-2.8 6-6 7H27c-3.2-1-5.2-3.5-6-7 -3.5-2.5-6-6.5-6-12 0-9 7-16 17-16Z"/>
    <path d="M32 40l-2.5 4 2.5 2 2.5-2Z"/>
    <path d="M25 50h14M28.5 50v5M32 50v5.5M35.5 50v5"/>
  </g>
  <circle cx="25" cy="30" r="5.5" fill="#fff7ef"/>
  <circle cx="39" cy="30" r="5.5" fill="#fff7ef"/>
</svg>
