<svg xmlns="http://www.w3.org/2000/svg" viewBox="0 0 64 64" role="img" aria-label="Huesitos">
  <rect width="64" height="64" rx="14" fill="#e6007e"/>
  <g fill="none" stroke="#fdf7f2" stroke-width="4" stroke-linejoin="round" stroke-linecap="round"
     transform="translate(32 33) scale(.235)">
    <path d="M0,-95 C52,-95 88,-58 88,-12 C88,16 76,36 60,50 C56,68 46,82 28,88 L-28,88 C-46,82 -56,68 -60,50 C-76,36 -88,16 -88,-12 C-88,-58 -52,-95 0,-95 Z"/>
    <path d="M0,10 L-11,30 L0,38 L11,30 Z"/>
    <path d="M-34,58 H34 M-20,58 V76 M0,58 V78 M20,58 V76"/>
  </g>
  <circle cx="26.5" cy="29.2" r="5.6" fill="#fdf7f2"/>
  <circle cx="37.5" cy="29.2" r="5.6" fill="#fdf7f2"/>
</svg>
